<?xml version="1.0" encoding="UTF-8"?>
<svg xmlns="http://www.w3.org/2000/svg" xmlns:xlink="http://www.w3.org/1999/xlink" width="37.5pt" height="37.499999pt" viewBox="0 0 37.5 37.499999" version="1.2">
<defs>
<clipPath id="clip1">
  <path d="M 2.375 1 L 35 1 L 35 28 L 2.375 28 Z M 2.375 1 "/>
</clipPath>
<clipPath id="clip2">
  <path d="M 17 9.617188 L 27.828125 9.617188 L 27.828125 25 L 17 25 Z M 17 9.617188 "/>
</clipPath>
<clipPath id="clip3">
  <path d="M 9.898438 9.617188 L 27.828125 9.617188 L 27.828125 25.054688 L 9.898438 25.054688 Z M 9.898438 9.617188 "/>
</clipPath>
</defs>
<g id="surface1">
<path style=" stroke:none;fill-rule:nonzero;fill:rgb(3.138733%,2.349854%,3.919983%);fill-opacity:1;" d="M 10.046875 36.136719 C 9.480469 34.839844 9.390625 31.066406 9.894531 29.417969 C 10.09375 28.714844 10.375 28.144531 10.53125 28.144531 C 10.664062 28.144531 11.890625 28.5 13.230469 28.914062 C 14.875 29.441406 15.929688 29.925781 16.433594 30.34375 C 17.09375 30.933594 17.335938 31 18.601562 31 C 19.898438 31 20.121094 30.933594 20.773438 30.34375 C 21.277344 29.882812 22.179688 29.460938 23.667969 29.003906 C 26.804688 28.035156 26.847656 28.035156 27.328125 29.355469 C 27.898438 30.984375 27.878906 34.144531 27.285156 35.726562 C 27.019531 36.429688 26.714844 36.933594 26.582031 36.867188 C 26.429688 36.820312 25.375 36.496094 24.238281 36.164062 C 21.847656 35.460938 21.230469 35.195312 20.640625 34.535156 C 20.292969 34.160156 19.960938 34.078125 18.707031 34.078125 C 17.371094 34.078125 17.109375 34.144531 16.382812 34.714844 C 15.882812 35.105469 14.675781 35.636719 13.269531 36.074219 C 11.996094 36.445312 10.835938 36.820312 10.679688 36.886719 C 10.53125 36.925781 10.265625 36.621094 10.046875 36.136719 Z M 15.464844 33.898438 C 16.148438 33.574219 16.515625 33.285156 16.324219 33.242188 C 15.84375 33.152344 13.207031 34.164062 13.097656 34.492188 C 12.964844 34.863281 13.972656 34.601562 15.464844 33.898438 Z M 24.242188 34.535156 C 24.242188 34.316406 22.332031 33.523438 21.238281 33.285156 C 20.625 33.152344 20.625 33.175781 21.347656 33.65625 C 22.554688 34.449219 24.242188 34.972656 24.242188 34.535156 Z M 16.234375 31.660156 C 16.035156 31.332031 14.613281 30.648438 13.777344 30.453125 C 12.617188 30.210938 12.921875 30.695312 14.214844 31.179688 C 14.828125 31.421875 15.511719 31.660156 15.6875 31.726562 C 16.214844 31.917969 16.382812 31.902344 16.234375 31.660156 Z M 23.035156 31.199219 C 24.375 30.695312 24.679688 30.210938 23.539062 30.453125 C 22.75 30.628906 20.734375 31.59375 20.734375 31.792969 C 20.726562 31.960938 21.5625 31.746094 23.035156 31.199219 Z M 23.035156 31.199219 "/>
<g clip-path="url(#clip1)" clip-rule="nonzero">
<path style=" stroke:none;fill-rule:nonzero;fill:rgb(58.81958%,12.159729%,12.159729%);fill-opacity:1;" d="M 7.417969 27.925781 C 6.695312 27.191406 6.050781 26.394531 5.484375 25.53125 C 4.917969 24.671875 4.441406 23.765625 4.054688 22.808594 C 3.664062 21.855469 3.375 20.875 3.179688 19.863281 C 2.980469 18.851562 2.886719 17.828125 2.890625 16.800781 C 2.894531 15.769531 3 14.75 3.203125 13.738281 C 3.40625 12.730469 3.707031 11.75 4.105469 10.796875 C 4.5 9.847656 4.984375 8.945312 5.558594 8.089844 C 6.132812 7.234375 6.78125 6.441406 7.511719 5.710938 C 8.238281 4.984375 9.03125 4.332031 9.886719 3.761719 C 10.746094 3.1875 11.648438 2.703125 12.597656 2.304688 C 13.550781 1.910156 14.53125 1.609375 15.539062 1.40625 C 16.550781 1.203125 17.570312 1.097656 18.601562 1.09375 C 19.628906 1.089844 20.652344 1.1875 21.664062 1.382812 C 22.671875 1.578125 23.65625 1.871094 24.609375 2.257812 C 25.566406 2.648438 26.472656 3.125 27.332031 3.691406 C 28.191406 4.257812 28.992188 4.902344 29.722656 5.625 C 30.457031 6.347656 31.117188 7.136719 31.695312 7.988281 C 32.277344 8.839844 32.765625 9.738281 33.171875 10.6875 C 33.574219 11.632812 33.882812 12.613281 34.09375 13.621094 C 34.304688 14.628906 34.417969 15.648438 34.429688 16.675781 C 34.441406 17.707031 34.355469 18.730469 34.167969 19.742188 C 33.980469 20.753906 33.695312 21.738281 33.3125 22.695312 C 32.933594 23.652344 32.460938 24.566406 31.902344 25.429688 C 31.34375 26.296875 30.707031 27.097656 29.988281 27.835938 L 29.03125 26.914062 C 29.6875 26.238281 30.273438 25.5 30.785156 24.710938 C 31.296875 23.917969 31.730469 23.082031 32.078125 22.207031 C 32.425781 21.332031 32.6875 20.429688 32.859375 19.5 C 33.03125 18.574219 33.113281 17.636719 33.101562 16.695312 C 33.089844 15.75 32.988281 14.816406 32.792969 13.894531 C 32.601562 12.96875 32.316406 12.074219 31.949219 11.207031 C 31.578125 10.339844 31.128906 9.515625 30.597656 8.734375 C 30.066406 7.957031 29.464844 7.234375 28.792969 6.574219 C 28.121094 5.910156 27.390625 5.320312 26.601562 4.800781 C 25.8125 4.28125 24.984375 3.84375 24.109375 3.488281 C 23.234375 3.132812 22.335938 2.867188 21.410156 2.6875 C 20.484375 2.507812 19.546875 2.417969 18.605469 2.421875 C 17.660156 2.425781 16.726562 2.519531 15.804688 2.707031 C 14.878906 2.894531 13.980469 3.167969 13.109375 3.53125 C 12.238281 3.894531 11.410156 4.335938 10.625 4.863281 C 9.84375 5.386719 9.117188 5.984375 8.449219 6.648438 C 7.78125 7.316406 7.1875 8.042969 6.660156 8.824219 C 6.136719 9.609375 5.691406 10.4375 5.328125 11.308594 C 4.964844 12.179688 4.691406 13.078125 4.503906 14 C 4.316406 14.925781 4.222656 15.859375 4.21875 16.804688 C 4.214844 17.746094 4.300781 18.683594 4.480469 19.609375 C 4.660156 20.535156 4.925781 21.433594 5.28125 22.308594 C 5.640625 23.183594 6.074219 24.011719 6.59375 24.800781 C 7.113281 25.589844 7.703125 26.320312 8.363281 26.992188 Z M 7.417969 27.925781 "/>
</g>
<g clip-path="url(#clip2)" clip-rule="nonzero">
<path style=" stroke:none;fill-rule:nonzero;fill:rgb(0.779724%,0.779724%,2.349854%);fill-opacity:1;" d="M 21.519531 24.226562 C 20.054688 23.851562 18.882812 22.753906 18.363281 21.25 C 17.636719 19.164062 17.65625 14.921875 18.378906 12.765625 C 18.789062 11.59375 20.128906 10.234375 21.167969 9.917969 C 23.433594 9.25 25.628906 10.160156 26.648438 12.171875 C 27.839844 14.496094 27.839844 19.59375 26.667969 21.917969 C 25.683594 23.816406 23.640625 24.726562 21.519531 24.226562 Z M 23.84375 21.472656 C 24.566406 20.785156 24.957031 19.257812 24.957031 17.007812 C 24.957031 14.605469 24.679688 13.472656 23.898438 12.691406 C 23.339844 12.132812 23.191406 12.078125 22.488281 12.171875 C 20.925781 12.375 20.425781 13.601562 20.425781 17.230469 C 20.425781 19.445312 20.460938 19.722656 20.871094 20.578125 C 21.59375 22.03125 22.820312 22.402344 23.84375 21.472656 Z M 23.84375 21.472656 "/>
</g>
<path style=" stroke:none;fill-rule:nonzero;fill:rgb(0.779724%,0.779724%,2.349854%);fill-opacity:1;" d="M 12.882812 18.253906 L 12.882812 12.488281 L 11.488281 12.488281 C 10.726562 12.488281 10.09375 12.429688 10.09375 12.375 C 10.09375 12.320312 10.390625 11.761719 10.761719 11.164062 L 11.449219 10.066406 L 15.296875 10.066406 L 15.296875 24.019531 L 12.882812 24.019531 Z M 12.882812 18.253906 "/>
<g clip-path="url(#clip3)" clip-rule="nonzero">
<path style=" stroke:none;fill-rule:nonzero;fill:rgb(61.178589%,10.978699%,12.548828%);fill-opacity:1;" d="M 8.738281 26.105469 C 7.511719 24.785156 6.210938 22.066406 5.839844 20.039062 C 4.277344 11.464844 11.597656 3.613281 20.164062 4.691406 C 23.304688 5.082031 25.535156 6.179688 27.839844 8.488281 C 30.125 10.773438 31.238281 13.027344 31.628906 16.113281 C 32.019531 19.386719 31.21875 22.441406 29.195312 25.359375 C 28.375 26.515625 28.0625 26.738281 27.746094 26.347656 C 27.578125 26.140625 27.6875 25.882812 28.285156 25.136719 C 29.917969 23.054688 30.792969 20.523438 30.792969 17.695312 C 30.792969 15.628906 30.53125 14.367188 29.695312 12.578125 C 28.46875 9.882812 26.445312 7.855469 23.75 6.625 C 21.964844 5.789062 20.703125 5.527344 18.640625 5.527344 C 15.242188 5.546875 12.601562 6.625 10.167969 9.042969 C 7.753906 11.425781 6.5625 14.253906 6.5625 17.621094 C 6.5625 20.429688 7.234375 22.53125 8.90625 24.894531 C 9.351562 25.527344 9.722656 26.125 9.722656 26.214844 C 9.722656 26.625 9.183594 26.570312 8.738281 26.105469 Z M 8.738281 26.105469 "/>
</g>
</g>
</svg>
