<svg xmlns="http://www.w3.org/2000/svg" viewBox="0 0 100 100">
    <!-- "yu" en Bw Modelica Bold, sin fondo. Glifos extraídos de
         fonts/BwModelica-Bold.woff y convertidos a paths (no depende de
         cargar la fuente desde el navegador). -->
    <g transform="translate(9 61) scale(0.07 -0.07)" fill="#fc5858">
        <path d="M151 -230C255 -230 301 -166 344 -62L598 539H450L308 159L156 539H7L238 12L211 -45C190 -86 172 -113 128 -113C111 -113 97 -110 85 -104L71 -215C91 -224 120 -230 151 -230Z"/>
        <path transform="translate(603 0)" d="M430 539V222C430 153 384 107 315 107C245 107 198 153 198 222V539H62V201C62 74 145 -10 267 -10C335 -10 394 16 433 66L435 0H566V539Z"/>
    </g>
</svg>
