<svg xmlns="http://www.w3.org/2000/svg" viewBox="0 0 100 100">
    <!-- "yu" en Bw Modelica SS01 Bold, sin fondo. Glifos extraídos de
         fonts/BwModelicaSS01-Bold.woff y convertidos a paths (no depende
         de cargar la fuente desde el navegador). -->
    <g transform="translate(8 61) scale(0.07 -0.07)" fill="#fc5858">
        <path d="M430 539V222C430 153 384 107 315 107C245 107 198 153 198 222V539H62V201C62 74 145 -10 267 -10C333 -10 391 15 430 62V52C430 -48 365 -113 269 -113C200 -113 141 -96 87 -55L57 -162C112 -207 187 -230 272 -230C449 -230 566 -119 566 51V539Z"/>
        <path transform="translate(635 0)" d="M314 -10C465 -10 565 80 565 215V539H429V222C429 153 383 107 314 107C244 107 198 153 198 222V539H62V215C62 80 162 -10 314 -10Z"/>
    </g>
</svg>
